<svg width="64" height="64" viewBox="0 0 64 64" fill="none" xmlns="http://www.w3.org/2000/svg">
  <defs>
    <linearGradient id="glowGrad" x1="0" y1="0" x2="1" y2="1">
      <stop offset="0" stop-color="#00f5ff"/>
      <stop offset="1" stop-color="#008cff"/>
    </linearGradient>
  </defs>
  <rect x="5" y="5" width="54" height="54" rx="16" fill="#0a111c" stroke="url(#glowGrad)" stroke-width="3"/>
  <g fill="url(#glowGrad)">
    <path d="M31 30 C 22 17, 13 16, 8 23 C 15 22, 23 25, 30 34 Z"/>
    <path d="M33 30 C 42 17, 51 16, 56 23 C 49 22, 41 25, 34 34 Z"/>
    <path d="M32 16 C 35 22, 35 30, 32 49 C 29 30, 29 22, 32 16 Z"/>
    <path d="M27 41 C 28 47, 31 49, 31 44 Z"/>
    <path d="M37 41 C 36 47, 33 49, 33 44 Z"/>
  </g>
  <circle cx="32" cy="14.5" r="2.6" fill="#7ef9ff"/>
</svg>
